<?xml version="1.0" encoding="UTF-8"?>
<svg id="Layer_2" data-name="Layer 2" xmlns="http://www.w3.org/2000/svg" viewBox="0 0 1482.44 1655.46">
  <defs>
    <style>
      .cls-1 {
        fill: none;
        stroke: #000;
        stroke-width: 4px;
      }
    </style>
  </defs>
  <g id="svg2996">
    <path id="path3007" class="cls-1" d="M335.38,24.75s2.55.7,3.48.46.23-3.48.23-3.48l-3.25-3.02s-3.25.46-3.25-.7-.23-4.64-.23-4.64l2.09-3.48h3.71l5.11,3.48,3.95,3.71,3.95-4.18,2.55-1.62,3.02,1.16,3.95-2.79,2.09-3.25,3.71-1.86,3.25,3.48,3.25,1.62,1.62-2.32s1.62-5.57,3.71-5.34c2.09.23,5.11,1.86,6.73,4.18,1.62,2.32.46,3.71,3.71,4.18,3.25.46,6.27-3.71,7.43-3.48,1.16.23,2.55,1.62,2.55,1.62,0,0,2.79.46,3.95-.23,1.16-.7,3.48-5.34,5.8-3.71,2.32,1.62,6.5,3.95,6.5,3.95,0,0-2.32,1.62-.7,3.95,1.62,2.32,5.11.7,5.34,3.48s2.32,3.95,4.41,6.27c2.09,2.32,2.32,5.11,3.48,6.03,1.16.93,6.96,3.48,7.66,4.41.7.93,3.48,2.55,3.48,4.87s0,4.87,3.95,4.87,5.11,4.64,7.66,5.57c2.55.93,8.36-.23,10.68,1.86,2.32,2.09,2.79,6.03,5.11,8.12,2.32,2.09,8.36.7,9.52,4.41,1.16,3.71.7,7.66,2.79,11.84s0,8.59,5.8,9.28c5.8.7,18.57-3.71,22.05.93s6.73,9.05,6.73,11.61-3.48,4.64,1.39,5.11,6.96.93,9.05-1.62,4.18-1.39,5.8,0,1.16-4.18,6.73-3.48c5.57.7,9.28-2.32,11.61-4.41,2.32-2.09,3.48-6.96,6.03-6.96s2.55-.23,6.5-1.62c3.95-1.39,6.73-2.55,7.66-1.86.93.7-.93-.93,2.32-1.39,3.25-.46,3.02.93,4.41,0s.46-4.87,4.64-3.48c4.18,1.39,5.57,1.39,6.27,2.79.7,1.39,3.71.93,4.64,0,.93-.93,2.09-2.32,4.87-3.71,2.79-1.39,6.73-1.62,6.73-1.62,0,0,3.02-4.87,5.34-4.41,2.32.46,3.71,2.09,3.71,3.48s-.23,2.32,2.09,3.25,5.34.46,6.73,2.32c1.39,1.86.7,3.02,3.48,3.48,2.79.46,7.66-.7,9.98,1.16,2.32,1.86,3.71,4.18,5.8,5.34,2.09,1.16,3.71,2.09,5.11,3.95,1.39,1.86,8.59,3.71,8.82,9.05s.7,10.44-1.39,13c-2.09,2.55-4.18,6.03-5.11,7.66-.93,1.62-1.62,4.41-1.39,6.5.23,2.09-1.16,2.55-2.32,5.34-1.16,2.79.7,10.91-1.16,13.23s-5.11,3.95-7.89,3.95-5.34-1.39-5.8.7c-.46,2.09,1.39,7.2-.7,8.59s-8.12,1.39-9.98,2.79c-1.86,1.39-3.25,11.84-3.71,13.46-.46,1.62,1.16,2.32-2.79,4.64-3.95,2.32-3.25,5.57-3.95,6.96s-2.55,2.09-7.43.46-9.52-3.48-11.37-3.95-6.73-.23-6.73.93.93,4.18-.7,5.11-.93,4.41,1.86,3.48c2.79-.93,4.18-2.09,4.41.93.23,3.02,1.16,5.57,2.09,5.57s1.95.7-.84,3.02c-2.79,2.32-5.66,7.66-5.66,7.66,0,0-1.62,4.18-.7,5.8s1.86,5.11,1.16,6.96,2.79,2.32,6.5,2.55,6.96,1.39,8.12,2.09c1.16.7,4.41-.23,6.5,1.16,2.09,1.39,4.18,1.16,3.71,4.41s-4.18,9.05-3.71,11.37,10.91,12.3,11.61,15.09c.7,2.79-1.16,9.05-3.02,11.14s-3.25,4.64-6.03,4.64-2.79-2.32-4.64-2.32-2.32,2.32-3.71,3.95-3.02,2.32-4.64,1.86-1.86.93-2.32,3.02c-.46,2.09-3.95,6.27-6.5,6.27s-4.18.23-5.8-1.16c-1.62-1.39-4.87-2.09-5.57-6.27s-1.16-8.59-3.71-9.28c-2.55-.7-7.43-1.39-8.12.7-.7,2.09.7,8.36.93,9.98s1.62,1.39.23,4.18-3.02,3.25-.46,4.41,6.27,1.86,5.34,5.57c-.93,3.71.46,3.71,3.25,6.27,2.79,2.55,3.25.7,3.25,4.64s.93,4.41-.93,7.2,3.25,10.68,3.95,12.53,2.87,3.95-1.3,6.03c-4.18,2.09-.55,6.03-.55,6.03l2.32,8.36s2.09,1.62,3.71-2.55,1.62-7.66,5.57-7.66,5.57.23,5.57,1.62-.23,2.55,2.79,4.18,6.27,4.18,5.8,8.59c-.46,4.41,1.86,2.55,4.64,6.5s4.18,7.89,7.89,7.89,3.25-2.79,6.73-2.55,5.57,2.79,9.05,4.64,1.86,2.09,5.11,2.55,4.41.46,4.87,2.32c.46,1.86,1.62,1.62,3.25,2.55s6.27-1.45,6.03,5.05-3.48,7.95,2.09,8.41c5.57.46,5.8,1.86,7.2,3.48s12.3-1.86,14.39,1.62-.7,7.43,3.02,8.36,8.59-.93,10.21.46c1.62,1.39,3.02,5.34,2.32,8.12-.7,2.79-6.5,3.25-8.82,3.48s-2.55,1.62-3.48,4.64c-.93,3.02-3.25,6.73-6.5,6.96s-6.03.93-6.03.93c0,0,2.32,2.09-.46,5.8-2.79,3.71-6.73,3.71-6.73,3.71,0,0-1.39,1.86-1.86,4.87s0,6.73-2.32,9.28-3.95,2.09-3.48,6.5c.46,4.41,3.95,8.82.46,11.61s-3.71,4.64-3.95,7.89,1.86,4.87-1.39,6.03-6.96.93-6.96,2.55,13,10.68,15.32,12.07,4.64,3.25,6.5,2.79.7-5.34,2.55-6.03c1.86-.7,3.48-.23,4.87,2.09s8.12,11.37,11.37,11.37,6.73.93,8.12,2.09c1.39,1.16,4.41-1.39,7.43,1.16,3.02,2.55,9.05,8.36,11.37,11.14,2.32,2.79,5.11-1.16,7.43,3.48s2.55,5.34,4.18,7.2c1.62,1.86,8.36,2.32,9.98,5.11s1.86,4.18,5.34,4.18,4.87-1.62,9.98-1.16,14.85,5.57,17.64,8.59c2.79,3.02,4.87,4.64,7.89,4.18,3.02-.46,5.34-3.25,7.89-2.09s6.03.23,5.8,5.11c-.23,4.87-.79,5.11,1.77,6.5s19.12,1.39,20.75,3.71,3.25,4.41,4.18,3.25c.93-1.16,1.16-5.11,2.55-6.5s9.75-2.32,12.07-.7,5.8,2.09,5.8,2.09c0,0-2.79-3.25,2.32-4.64s7.89-1.16,9.52-1.16-3.02-2.32,2.55-1.62c5.57.7,8.59,1.86,9.52,3.25.93,1.39-.93,2.09,2.09,3.95s10.44-.46,12.3.7c1.86,1.16,6.96,8.59,6.96,14.16s-1.62,6.03,3.25,6.96c4.87.93,20.66,6.03,22.05,8.36s5.8,4.41,6.27,3.48,5.57-2.32,6.73-2.32.7-2.55,5.11-2.09,6.5,2.55,6.5,4.64,1.86,3.02,3.02,3.95c1.16.93,2.32,2.32,1.86,4.41-.46,2.09.46,2.55,3.48.23,3.02-2.32,1.86-5.8,5.8-4.18s4.18,3.95,6.5,4.64c2.32.7,4.41-3.02,5.8-3.02s6.96,3.71,7.89,5.11.46,3.25,4.64,3.48c4.18.23,3.48-1.39,6.96-.93s5.57,2.32,5.57,2.32c0,0,4.41-8.12,9.28-7.2,4.87.93,6.96,4.41,8.36,5.57,1.39,1.16,1.16,5.11,9.75,2.79s8.82-.93,11.84-.23c3.02.7.93.23,6.5-2.09,5.57-2.32,8.59-3.71,10.68-1.16,2.09,2.55,3.25,6.27,4.41,3.25s1.86-4.18,2.79-8.82c.93-4.64.93-13.46.93-14.85s-6.73-13.93-7.89-15.55c-1.16-1.62-3.25-4.87-1.39-6.73s1.62-5.34,1.86-9.98c.23-4.64-1.62-11.61.23-13.69s7.2-9.05,6.5-10.68-4.87-3.71-5.34-6.5-1.39-6.5,1.86-6.5,6.73-.46,10.68-.93c3.95-.46,11.61-7.89,13.23-8.36s9.52.7,10.44,3.25c.93,2.55,5.57,7.89,5.57,9.28s.93,8.36-1.16,11.61c-2.09,3.25-3.48,6.5-3.48,8.59s2.79,6.27,3.48,6.96c.7.7,1.62,2.79,1.62,4.64s-3.25,5.57-3.95,6.96,1.39,3.02,2.79,4.41c1.39,1.39,1.86,3.48,2.09,4.87.23,1.39,9.28,4.41,11.37,7.43,2.09,3.02,5.8,5.57,8.12,2.79,2.32-2.79,5.8-4.87,7.89-3.02,2.09,1.86,2.32,2.32,4.87,2.79,2.55.46,3.48,1.62,4.87,3.02,1.39,1.39,5.34,3.25,9.05,2.55s4.18-5.8,4.18-5.8c0,0,.46-2.09,4.41,0,3.95,2.09,5.57,3.02,6.5,0,.93-3.02.05-4.41,5.86-5.11,5.8-.7,4.36-3.48,4.36-3.48,0,0,3.48-1.16,7.66,3.25,4.18,4.41,18.34,6.27,22.05,4.87s4.41-5.11,8.59-5.34c4.18-.23,8.59,0,10.21.23s-.46-3.02,3.25-3.02,7.66.7,9.52.7,3.95-5.57,7.66-5.57,8.82,0,10.44,1.62c1.62,1.62,2.32,4.18,3.71,2.79,1.39-1.39-.7-.93-1.62-8.12-.93-7.2-4.18-7.89-1.86-13s2.32-8.59-1.16-10.44c-3.48-1.86-10.44-3.02-13.69-3.48-3.25-.46-8.82-.23-9.75-1.62-.93-1.39-1.16-13-1.16-13.93s-1.39-6.5-1.39-7.89,1.39-3.48,3.02-2.79c1.62.7,7.2,7.66,11.84,8.59,4.64.93,4.41-.93,7.66-3.71,3.25-2.79,11.14-4.87,13.46-3.71s3.71,1.62,8.59-.46,8.12-6.96,9.05-8.59-4.18-3.95-4.41-5.57c-.23-1.62,2.55-4.18,4.41-5.11,1.86-.93,3.48-3.95,6.27-4.41,2.79-.46-.7-3.71,1.39-4.64s6.73-1.16,6.73-1.16c0,0-.46-.46,2.32-1.39,2.79-.93,5.34-1.16,6.5-.93,1.16.23,1.86-1.39.46-4.41-1.39-3.02.46-9.05,1.86-9.98,1.39-.93,2.09-.7,3.02-3.02.93-2.32,1.86-4.64,4.64-4.64s6.73,2.79,9.52,2.55c2.79-.23-.46-3.25,5.57-4.41,6.03-1.16,9.28-1.39,9.28-1.39,0,0,3.48-7.43,5.8-10.44,2.32-3.02,4.64-5.11,5.34-8.12s2.32-6.73,5.57-8.59,9.05-6.73,10.91-9.98,3.02-5.57,4.87-4.64c1.86.93,2.55,4.87,4.87,6.03s4.87,3.48,7.89,3.48,12.3,2.79,15.55,4.87,8.82.23,9.98-1.62c1.16-1.86,2.55-3.48,3.95-6.96,1.39-3.48,9.28-9.75,12.77-12.07,3.48-2.32,6.03-4.79,8.82-5.02,2.79-.23,7.89.84,8.59,3.62.7,2.79,0,5.11,2.09,5.34s7.2-.93,8.12-.23,2.32,4.41.7,6.27c-1.62,1.86-6.73,4.64-7.66,6.03s-3.25,5.57-2.32,6.73c.93,1.16,2.55,3.02,4.41,1.16,1.86-1.86-.7-5.11,3.71-5.8s6.03-2.55,6.73-.23c.7,2.32,1.39,6.03,2.55,7.2,1.16,1.16,2.55,3.48,2.79,4.41s3.71,3.02,3.71,4.18-3.48,8.36-8.12,12.53c-4.64,4.18-8.82,6.03-6.5,8.12s11.14-4.41,14.39-4.18c3.25.23,5.8,0,7.66,1.86,1.86,1.86,3.71,4.64,7.66,4.18,3.95-.46,4.41-3.25,7.66-2.09,3.25,1.16,2.55,2.79,6.73,3.25,4.18.46,8.36-2.09,8.36,2.55s-4.87,3.71-1.86,7.66c3.02,3.95,5.34,3.71,4.18,7.2-1.16,3.48-2.09,4.41-3.95,5.8-1.86,1.39-6.5,9.75-7.89,10.68-1.39.93-8.36,3.48-8.82,5.8-.46,2.32,2.32,8.82,3.25,10.21s3.02,3.48,5.34,5.8,5.34,3.25,6.03,6.27c.7,3.02,1.16,6.27-.7,7.2s-6.27,1.39-7.89.23c-1.62-1.16-2.79.7-5.8-1.39s-5.57-8.36-7.43-9.75c-1.86-1.39-1.11-2-4.36-.14s-2.61,5.25-6.09,5.25-3.25-2.55-5.57-.46c-2.32,2.09,2.09,3.48-4.41,3.71-6.5.23-8.36.46-9.98,3.02-1.62,2.55-5.11,13.69-7.89,14.16s-10.21,6.73-12.3,9.75-6.03,6.03-6.5,7.43c-.46,1.39.93,3.02-1.62,4.18-2.55,1.16-7.66,1.86-9.52,2.79-1.86.93-7.43,5.57-6.27,8.59s4.64,6.27,4.87,10.44-1.16,4.41-.23,7.43c.93,3.02,3.02,4.18,2.32,6.96s-3.71,7.89-4.18,9.75,1.39,9.98-.46,12.07-2.79,5.57-3.48,7.2c-.7,1.62-2.32,4.18-4.64,6.03-2.32,1.86-5.34,3.95-5.34,3.95,0,0-6.27,3.95-5.34,7.66s.46,6.73,3.48,8.36c3.02,1.62,3.95-.23,3.95,3.25s.23,14.16-2.09,17.87c-2.32,3.71-4.87,3.25-5.34,7.2s.7,6.27-.93,8.59c-1.62,2.32-5.34,2.32-6.27,7.66-.93,5.34-.7,9.98-2.55,13-1.86,3.02-3.02,1.62-3.02,6.03s5.11,1.62.46,7.43c-4.64,5.8-8.82,3.48-11.84,1.86-3.02-1.62-2.79-1.86-5.11-.23s-3.48,1.86-6.27-.23-4.18-3.95-6.5-2.55c-2.32,1.39-5.34,2.79-5.8,3.71s-.7,15.78-.23,18.1c.46,2.32,2.32,2.55,1.16,5.8-1.16,3.25-3.25,6.27-3.71,7.66s5.11,9.05,3.95,12.53c-1.16,3.48,1.62,10.44-1.62,11.14-3.25.7-6.5.46-8.82,1.16-2.32.7-5.57,4.41-4.87,7.2.7,2.79.93,6.27,2.32,8.12,1.39,1.86,2.09,6.03,1.62,8.82-.46,2.79,3.02,6.03,3.02,8.36s1.16,3.25-.46,7.2c-1.62,3.95,2.79,8.36,1.62,12.07-1.16,3.71-3.02,5.34-4.64,7.66-1.62,2.32-1.16,3.02-2.55,6.03-1.39,3.02.7,8.12-3.48,7.43-4.18-.7-5.11-1.86-9.05-4.64-3.95-2.79-3.48-2.32-3.71.46-.23,2.79-.23,5.8-3.71,4.87-3.48-.93-5.8-3.25-4.18-7.2,1.62-3.95-4.41-17.64-2.55-20.66,1.86-3.02-2.32-9.28-2.32-11.84s1.62-5.8-.23-9.52c-1.86-3.71-1.62-1.48-4.64-6.36s-5.34-7.8-2.79-10.59.93-6.03,1.16-9.75c.23-3.71.7-1.62-1.86-5.11s-6.27-7.89-4.87-13c1.39-5.11-1.16-5.57-2.55-8.12-1.39-2.55-4.64-2.79-3.25-5.11,1.39-2.32,1.86-3.02-1.39-3.25-3.25-.23-3.02.93-5.34,2.09s-3.02-1.39-3.95.23c-.93,1.62-.7,4.41-.23,6.73s0,6.03-1.86,7.66c-1.86,1.62-5.34,6.96-5.34,6.96,0,0,2.32,5.8,2.32,8.12s.23,8.59-1.16,10.44c-1.39,1.86-5.34,5.8-7.43,6.27-2.09.46-4.41-.46-5.8-1.39-1.39-.93-3.25.46-2.79-4.87s-1.86-7.66-2.79-9.28c-.93-1.62-3.48.93-3.48,1.86s1.62,3.71,1.16,4.87-4.64,2.79-4.64,2.79c0,0-2.32-3.71-2.32-5.8s-.23-11.84-3.95-17.41c-3.71-5.57-6.5-9.75-6.5-12.3s1.62-5.11,1.86-7.89c.23-2.79-.93-3.02,1.16-5.34s1.86-9.28,1.86-9.28c0,0,.23-3.48,4.41-6.27s6.5-2.55,9.75-2.79,1.16-1.86,3.71-4.18,5.11-3.02,5.11-3.02c0,0,1.39-2.09,3.95-1.62,2.55.46,6.03,3.02,6.03,3.02,0,0,.93-1.86-.23-7.43-1.16-5.57-.93-7.2,3.02-6.96,3.95.23,6.27.7,6.27.7,0,0,0-5.57-.23-9.28-.23-3.71,3.48-3.25,4.64-4.87,1.16-1.62,5.11-1.16,1.39-3.95-3.71-2.79-5.11-7.2-5.11-7.2,0,0,3.25-3.95,6.5-3.95s8.12,3.02,4.64-.23-4.41-3.71-6.5-3.71h-2.09s-1.39,0-5.11-2.09c-3.71-2.09.23-2.09-6.03-1.62s-6.5.46-6.5.46c0,0-2.32-2.09-3.95.7-1.62,2.79,2.09,4.18-8.12,3.71-10.21-.46-10.91-2.09-16.48-3.02-5.57-.93-3.25-2.32-6.5-1.16-3.25,1.16-6.96,5.8-12.53,3.71s-5.34-3.48-10.21-2.55c-4.87.93-1.16,5.57-10.21,5.11s-8.59-.7-12.53-2.55c-3.95-1.86-1.62,2.32-6.96.23-5.34-2.09-6.73-4.18-8.82-3.25-2.09.93-9.98,0-9.98-5.11s-.23-9.28,2.09-10.68c2.32-1.39,3.48-3.48,1.16-7.43s-3.95-2.55-3.48-6.96c.46-4.41,2.79-5.57,2.09-8.82-.7-3.25-2.55-7.66-5.8-6.73s-2.09,2.79-4.18,4.18c-2.09,1.39-5.34,3.48-9.75,2.55-4.41-.93-10.44-6.73-10.44-7.66s-4.41-2.32-6.03-4.87-2.55-5.8-2.55-5.8c0,0-4.64-3.25-4.64-2.32s1.86,4.41,1.86,4.41c0,0,0,2.55-1.86,2.55s-2.32-1.86-5.11-2.09c-2.79-.23-3.71.93-3.25,2.09.46,1.16,3.71,2.79,3.95,4.64s-.93,3.95-4.18,3.71-6.5-2.55-7.2-4.18c-.7-1.62-2.32-1.86-2.55-6.5-.23-4.64.46-7.2-1.62-8.59s-4.87-2.09-4.87-2.09c0,0-.46,2.79.46,3.48.93.7,2.79,2.09,2.79,2.09,0,0,.23,3.71-3.95,5.8-4.18,2.09-7.66,4.18-8.36,5.8s-2.55,3.48-2.55,5.34.7,3.95-.93,4.87-3.25,2.32-1.62,4.87,5.34,3.02,7.89,5.11,4.41,5.11,6.27,5.8c1.86.7,3.02,0,3.48,1.86.46,1.86-.46,3.95,1.39,4.64,1.86.7,2.79.7,5.8.93,3.02.23.23-.93,4.41-.93s5.11-2.32,5.8,2.09c.7,4.41-.23,5.34,2.32,6.5,2.55,1.16,5.57-1.16,6.73,2.79,1.16,3.95,2.32,5.8,1.16,7.89-1.16,2.09-1.86,5.57-4.87,6.03-3.02.46-6.03-2.09-12.07.7-6.03,2.79-6.03,3.71-7.89,2.79-1.86-.93-2.79,5.34-3.02,8.12-.23,2.79-.7,6.96-4.18,7.89-3.48.93-6.03.23-6.96,1.16-.93.93-2.09,1.16-2.55,3.48s3.25,11.14,3.95,12.07c.7.93,3.02,5.11,6.96,6.5,3.95,1.39,6.03,1.86,10.44,2.32,4.41.46,9.75-1.86,10.68,3.02.93,4.87-.23,7.43.93,11.61,1.16,4.18,2.09,5.57,0,8.59s-4.41,4.41-6.5,6.5c-2.09,2.09-3.71,6.5-1.16,9.75,2.55,3.25,9.28,4.41,10.68,7.43,1.39,3.02,3.02,6.73,1.62,9.52s-4.64,3.48-2.79,5.57c1.86,2.09,6.5.7,10.68,2.09,4.18,1.39,3.71,8.59,2.09,9.75s-4.87,2.09-4.18,4.64c.7,2.55,3.48,2.79,3.95,6.03s-.7,2.79-1.62,8.36.46,6.73,1.39,7.66c.93.93,2.09.46,3.02,5.8.93,5.34-.23,4.18.23,6.96.46,2.79,1.16,2.55,1.62,5.8.46,3.25,2.32,4.87,3.48,6.5s2.79,4.87,1.62,7.43c-1.16,2.55-1.86,3.71-1.86,6.5s1.86,4.87-.7,6.03-8.59,2.32-10.91.46-4.64-6.27-6.03-3.95c-1.39,2.32-.93,3.48-3.02,5.34s-3.02,3.71-6.73,4.41c-3.71.7-5.8.7-8.12.93s-4.64,3.48-4.64-.93,0-9.05-2.55-9.98c-2.55-.93-5.57,0-5.8,2.55-.23,2.55,1.16,1.86,0,5.34-1.16,3.48-1.16,4.87-4.64,5.11s-4.18,1.16-4.18,3.25,3.71,3.25.46,4.87c-3.25,1.62-8.36,1.86-11.61,2.09s-7.89.23-9.75,2.79-10.21,3.71-11.37,3.71-2.32.93-2.79,2.32c-.46,1.39-4.18,6.03-6.5,7.66-2.32,1.62-5.34,2.79-5.34,4.87s3.71,8.59,4.64,9.52c.93.93,4.64,3.25,4.87,5.57s-.46,3.71-1.39,4.64c-.93.93-3.02,1.16-1.39,2.55s3.95.93,2.55,4.41c-1.39,3.48-8.12,10.44-9.75,11.61-1.62,1.16-.7,4.64.23,5.57.93.93,1.62,3.48.7,4.87-.93,1.39-20.19,21.82-22.51,22.98-2.32,1.16-4.41,2.79-6.96,3.48-2.55.7-9.98,2.79-9.98,3.71s-9.75,3.25-12.07,5.34-4.64,3.71-7.43,3.71-1.86,0-3.48,1.39c-1.62,1.39-3.25,3.02-5.11,1.86-1.86-1.16-3.02-1.62-3.25-3.02-.23-1.39-1.16-3.95.23-5.34,1.39-1.39,3.71-3.95.46-3.25s-5.57,1.16-6.73,2.79c-1.16,1.62-7.66,4.87-7.66,6.03s-.7.7,1.39,1.86,3.02.7,5.34,1.16c2.32.46,1.86-2.32,3.02.7s.93,5.8-1.86,6.27c-2.79.46-2.32,0-3.48,2.32l-1.16,2.32s-9.05,4.64-11.14,6.5c-2.09,1.86-2.09,3.48-3.48,5.57s-1.86,2.79-4.64,4.41-4.64.23-4.64,5.57-3.71,8.59-7.2,12.77c-3.48,4.18-8.82,8.82-13.23,15.55-4.41,6.73-6.5,9.52-9.52,12.3-3.02,2.79-13.46,6.5-17.18,8.59s-9.28,7.2-12.07,9.52c-2.79,2.32-4.64,3.71-5.11,9.75s1.62,7.66-1.16,9.98c-2.79,2.32-12.3,12.77-14.39,13.46-2.09.7-2.32-.7-6.03.93-3.71,1.62-1.16,3.71-5.34,3.25s-4.64.23-8.36,3.25-3.71,5.11-9.05,7.89-10.44,3.71-11.14,6.96c-.7,3.25-1.39,3.02,0,6.5,1.39,3.48,2.09,2.55,2.09,9.05s1.62,9.28-2.09,11.14-4.41,2.32-4.41,3.71-.93,1.16-3.95,2.79c-3.02,1.62-2.79,1.39-6.27,1.39s1.39.23-4.18,2.32c-5.57,2.09-7.66,4.64-13.93,4.64s-6.96,4.18-10.44.7c-3.48-3.48-2.79-8.36-9.75-4.18s-3.95,1.86-5.34,9.28c-1.39,7.43-.7,6.27-3.71,7.89s-1.39,4.41-3.02,6.27c-1.62,1.86.23,0-3.02,3.25-3.25,3.25-3.02,3.25-4.41,6.5s-9.52,8.36-11.37,5.8c-1.86-2.55-4.18-7.2-8.59-7.43s-12.77,3.02-16.02,6.5c-3.25,3.48-3.95,2.55-4.64,6.03-.7,3.48-.93,2.79-2.32,5.57-1.39,2.79,0,2.79-.93,3.95-.93,1.16-3.71,1.62-5.57,3.48-1.86,1.86-4.64,6.27-3.48,10.44s0,3.95,1.16,9.28c1.16,5.34.7,4.18,3.02,10.21,2.32,6.03,3.95,12.3,4.18,16.71.23,4.41,2.79,4.41-.23,7.89s-6.96,2.79-6.73,5.11c.23,2.32,1.86.7,2.55,3.02.7,2.32.93,3.71,1.39,6.73.46,3.02,2.09,1.86,3.48,4.64s1.86,2.09,1.86,4.87,1.16,4.18,2.79,7.43c1.62,3.25,3.02,11.14,0,10.91-3.02-.23-6.03-4.18-8.12-4.18s-3.48,4.41.23,6.03,8.12,2.79,9.28,5.11c1.16,2.32,8.82,15.09,2.09,26.92-6.73,11.84-7.2,14.16-9.28,15.55-2.09,1.39-7.2,3.25-7.2,3.25,0,0-1.39,2.09,0,3.25,1.39,1.16,3.02,3.48,3.02,3.48,0,0,2.79,1.86,0,5.8-2.79,3.95-4.64,8.12-7.66,9.75s-4.64,3.48-6.73,6.03-3.25,11.61-3.71,13.69-1.39,3.48-1.39,3.48c0,0-2.09,1.16.23,4.18,2.32,3.02,3.71,4.87,2.32,6.73-1.39,1.86-3.48,2.32-3.48,4.64s6.96,13.23,5.11,22.51,2.09,16.71,1.39,22.05.46,10.21.46,12.77,6.5,4.87.23,7.43-14.85,3.95-21.82,2.79c-6.96-1.16-5.8-3.95-11.37.23-5.57,4.18-6.5,7.66-5.34,8.36s4.27,3.86-.38,7.34c-4.64,3.48-15.64,17.5-16.1,20.51-.46,3.02-2.55,5.8.46,9.05s8.36,6.73,8.82,8.82.46,4.87-2.32,5.11c-2.79.23-13.46,1.62-16.94,1.86s-5.11-.93-6.5.23c-1.39,1.16-1.16,2.79-6.5,4.41-5.34,1.62-8.12-4.41-14.39,1.39-6.27,5.8-7.89,7.43-6.96,11.37.93,3.95-2.09,18.57-2.32,22.51-.23,3.95-6.5,4.41-8.36,4.64s-3.71,0-5.34,2.09-2.55,3.25-6.03,4.41c-3.48,1.16-5.11,3.25-8.82,5.8s-2.79,4.87-7.89,4.87-12.3.23-13.93-2.55c-1.62-2.79.23-4.41-4.64-4.87-4.87-.46-4.18,4.18-7.66,0-3.48-4.18-8.59-8.12-9.28-9.75-.7-1.62.7-3.02-.93-4.41-1.62-1.39-5.11-.7-5.11-.7,0,0-5.8-5.57-11.37-10.68-5.57-5.11-9.52-5.8-10.68-9.98-1.16-4.18-.7-5.57-3.02-8.59s-6.03-4.64-6.03-7.43,2.55-6.5.93-8.59-3.02-2.55-3.25-3.48c-.23-.93-3.71-8.36-3.71-18.1s-6.5-18.8-7.2-21.35c-.7-2.55-1.16-6.5-1.16-6.5,0,0,2.32-1.16,3.48-.46,1.16.7,1.39,1.39,2.55,3.02s3.48,2.79,3.48,2.79c0,0,2.32-.46,1.16-2.55-1.16-2.09-2.32-2.55-3.48-4.18s-.46-2.09-2.32-4.87c-1.86-2.79-3.02-3.25-3.02-3.25,0,0-1.62,2.32-1.62,3.02s-2.09-1.39-2.09-3.71-3.02-6.5-5.11-9.28c-2.09-2.79-3.25-6.27-3.71-9.05-.46-2.79,1.39-3.71.23-6.5-1.16-2.79-3.25-4.87-3.71-6.5-.46-1.62,1.16-4.87-1.16-9.75-2.32-4.87-3.48-3.71-4.41-8.12s1.62-1.62-2.09-6.03c-3.71-4.41-3.95-2.32-4.87-6.96s-1.39-3.02-2.79-8.36c-1.39-5.34-.23-4.18-3.95-6.73s-9.52-12.53-12.07-14.62-5.8-1.62-8.12-3.95c-2.32-2.32-3.95-6.5-5.11-9.28s-6.73-21.35-9.05-25.07-3.71-1.16-3.71-7.43-5.57-9.52-5.8-15.55-.7-6.27-1.62-11.37-2.09-7.66-1.16-8.82c.93-1.16-.46-6.03-.7-7.66s1.86-3.95,1.86-3.95c0,0-6.96-6.96-5.11-10.44,1.86-3.48.23-.23-2.32-5.57s-5.11-7.2-5.34-9.98,2.32-3.25,2.79-5.8c.46-2.55-3.71-.93-4.18-4.64-.46-3.71-.7-5.57-.46-7.2.23-1.62-7.43-3.71-6.96-5.8.46-2.09,5.34-7.43-.46-8.59-5.8-1.16-5.57,0-6.27-1.86s-.23-4.87-1.62-7.43-4.64-2.55-5.8-4.64c-1.16-2.09-1.39-6.27-4.18-11.84-2.79-5.57-3.02-2.79-5.11-5.8-2.09-3.02-2.79-5.34.46-6.27,3.25-.93,7.89,1.62,3.25-1.62-4.64-3.25-6.73,2.09-7.89-3.02s-2.32-8.82-3.02-10.91-3.48-.46-3.48-3.48,0-3.71.23-4.87c.23-1.16-4.41-.7-5.8-5.34-1.39-4.64-.46-7.66-1.86-10.91s-1.86-1.86-4.87-9.28c-3.02-7.43-2.32-19.73-3.02-24.6-.7-4.87-2.79-11.37-1.86-13s.23-2.32-.23-4.41c-.46-2.09,1.86-5.57,1.86-5.57,0,0-2.09-.46-3.71-5.34-1.62-4.87,6.27-3.48,1.39-6.03s-6.96-1.16-4.18-5.57-2.55-14.62-1.62-17.41-1.86-.46-2.79-5.8-.23-5.34-1.39-7.2c-1.16-1.86-1.39-2.09-1.39-2.09,0,0-2.09-.23-1.39-5.11.7-4.87,1.86-5.34-1.16-7.66-3.02-2.32-5.8-4.87-6.03-7.2s3.95-4.64,3.71-6.96c-.23-2.32-3.71-2.79-4.18-6.5-.46-3.71.23-7.66,1.62-8.12,1.39-.46,4.18.23,5.11-.7.93-.93,1.39.23.23-3.25-1.16-3.48-2.55-2.79.7-4.87,3.25-2.09,7.2-2.79,5.11-4.87-2.09-2.09-6.96-.93-6.96-.93,0,0-2.09,3.48-2.79,4.87-.7,1.39-1.16,7.43-3.02,4.64-1.86-2.79-.93-11.37-.93-13s-2.09-6.96,0-8.12,5.57-2.32,2.32-4.41c-3.25-2.09-4.41-.93-5.11-2.55s.7-4.64,1.62-5.34c.93-.7,3.95-3.02,1.86-3.71-2.09-.7-3.48,2.32-4.41-1.39s-.93-4.41-1.86-6.5-3.48-3.71-.23-6.5c3.25-2.79,2.32-6.27,2.55-8.12.23-1.86,1.62-3.95,2.79-6.5s.23-10.68,1.86-11.84,3.48-1.16,4.87-4.87c1.39-3.71,4.64-4.18,2.32-9.52s-3.71-7.89-3.48-10.68c.23-2.79-.93-3.71-2.32-7.2-1.39-3.48-2.79-4.87-2.09-7.2s-.93-1.62-3.48-5.11-3.25-7.43-3.25-8.36-.23-3.95,2.32-4.87,4.41-.23,4.64-2.79-1.39-5.34,0-6.73,7.2-1.62,8.59-3.48c1.39-1.86,2.32-3.95,0-4.64-2.32-.7-10.91,2.32-13,.46s-4.64-5.11-3.48-6.5,6.27-.7,7.66-4.64c1.39-3.95.23-5.57-3.02-5.57s-5.8,3.25-5.57-2.09c.23-5.34-.93-9.52,3.25-9.75,4.18-.23,7.89-1.62,6.27-3.71-1.62-2.09-4.64-3.25-7.66-2.79s-3.95,1.39-4.41-3.02-2.79-9.75-3.48-7.66c-.7,2.09.93,14.16.93,15.32s-1.39,3.02-3.02,4.64-3.25,8.82-3.02,9.75,1.39,3.48,2.32,4.41c.93.93,1.39,3.25.93,4.64s-4.41,3.02-4.41,5.11,2.32,2.55,3.48,5.34c1.16,2.79,1.86,6.96-2.09,10.21s-7.2,4.87-7.66,9.75c-.46,4.87-3.71,8.36-6.5,8.82s-6.27,0-8.36,1.86-.93,4.18-6.73,5.11-6.96,1.39-9.98,2.32-3.71,4.41-8.82,5.57c-5.11,1.16-12.3,3.71-16.25,4.41-3.95.7-7.89-2.32-9.05-2.32s.18,3.71-4.7,5.57c-4.87,1.86-11.32-3.25-13.18-4.87s-6.96-.46-9.98-2.32c-3.02-1.86-3.48-7.66-7.66-9.52-4.18-1.86-3.95-1.62-8.82-6.27-4.87-4.64-6.96-6.5-9.28-9.75s-6.03-8.82-8.36-13.23c-2.32-4.41-1.16-4.64-4.41-7.2-3.25-2.55-9.75-10.91-11.84-13-2.09-2.09-15.78-15.78-19.03-19.73-3.25-3.95-5.34-2.32-6.96-8.59-1.62-6.27-3.25-10.44-2.55-13.23s1.86-6.03,4.87-6.73c3.02-.7,3.25-.7,3.25-.7,0,0,5.34-.7,6.5.93,1.16,1.62,1.86,5.8,2.32,6.73.46.93.93,4.64,3.48,3.25,2.55-1.39,4.18-3.02,5.34-3.02s3.71,1.16,4.18-.46.46-3.95,3.25-2.55c2.79,1.39,4.87,3.48,6.03,3.48s.7-2.09,3.02-3.25,4.87-2.55,6.96-1.62c2.09.93,6.5-2.32,6.5-2.32,0,0-1.62-2.79,3.48-2.79s6.73,1.86,10.44-.46,5.57-6.03,5.57-6.03c0,0,3.71-3.48,5.34-4.41s1.39-4.87,4.41-5.11,6.96-1.86,6.96-3.48,1.86-4.18,1.86-4.87-3.48-3.02-3.48-3.02c0,0-5.8-2.32-6.03-.46-.23,1.86,3.02,4.87,2.09,5.34s-5.11,1.16-5.34,2.09c-.23.93-2.32,2.32-4.64.7s-2.79-2.79-6.73-.23c-3.95,2.55,1.39,4.41-2.55,5.57-3.95,1.16-7.2.7-11.37-.23-4.18-.93-6.73-3.48-7.43,0-.7,3.48,1.39,6.03-4.87,5.57-6.27-.46-12.3.23-16.71-2.32-4.41-2.55-23.68-11.61-25.53-13.23s-16.02-15.09-15.09-16.94-5.11-6.03-7.2-9.05c-2.09-3.02-6.27-4.64-3.48-6.96s3.02-3.48,3.71-5.57c.7-2.09,1.16-2.55,4.87-3.02s8.59-2.09,9.28-3.25,5.8-3.02,2.79-4.18c-3.02-1.16-2.09-2.79-5.57-1.16s-8.59,5.11-9.52,6.5-2.55,2.55-5.34,3.95c-2.79,1.39-5.11,6.03-7.89,4.18-2.79-1.86-6.5-2.32-5.11-6.03,1.39-3.71,5.11-3.02,4.64-5.8-.46-2.79-1.39-.93-1.62-5.11-.23-4.18,4.87-11.61,5.8-11.37.93.23,7.2,2.55,9.98,3.25s8.12,2.32,11.14,1.86c3.02-.46,3.95-.7,4.18-3.95.23-3.25-.46-15.55,1.39-16.25,1.86-.7,6.03-2.09,6.5.23s1.16,2.55,2.32,2.55,5.57-.93,5.8.46.23,4.41,1.86,2.32c1.62-2.09,4.18-5.57,6.73-2.09s4.41,3.71,9.98,1.16c5.57-2.55,6.73-5.11,13.23-.93s6.73,7.66,14.16,7.89c7.43.23,8.82,5.57,11.61,0s-.46-7.43,5.34-7.89c5.8-.46,9.75.23,12.53-.7,2.79-.93,3.25-1.16,3.25-1.16,0,0,1.16-2.55,4.18-3.02s2.09-1.62,3.25-.46c1.16,1.16,2.55,1.86,2.32,6.96s-1.39,6.03,4.18,6.03,5.34,2.09,7.89-1.86-3.48-4.87,5.11-4.64,15.55,1.62,8.82-1.62-11.14-3.02-8.36-8.12c2.79-5.11,4.87-5.57,4.64-7.89-.23-2.32-1.39-2.79-4.18-6.5s-3.71-12.53-3.71-15.32-8.36-13.69-9.75-18.1-1.86-11.37,1.16-14.39c3.02-3.02,2.09-5.57-2.09-3.71s-14.39,2.32-16.02.46-3.25-3.95-5.34-7.66c-2.09-3.71-3.71-4.18-4.87-6.03-1.16-1.86-1.62-3.71-1.86-4.87-.23-1.16-3.95-9.05,1.39-16.02,5.34-6.96,5.8-10.21,5.34-14.85s2.79-5.34-3.95-5.34-7.2,1.86-14.16-2.79-7.43.23-12.07-5.11-6.73-23.44-4.87-25.76c1.86-2.32,11.14-10.91,15.32-14.16,4.18-3.25,8.36-5.34,10.91-8.59s8.59-15.78,14.16-20.19,6.03-7.43,14.62-8.82c8.59-1.39,15.32-3.02,15.32,2.79s-1.16,8.59-.7,9.98c.46,1.39,2.09.93,2.32,3.48.23,2.55-.23,5.57,2.79,4.87s3.71-3.95,6.96-4.87,4.18-.7,8.12-1.39c3.95-.7,1.39,0,9.52-1.62,8.12-1.62,7.43.93,16.02.23,8.59-.7,11.14.23,13-5.34,1.86-5.57-1.39-6.5,5.8-11.37s10.91-4.87,13.69-12.77c2.79-7.89.23-8.59,4.64-11.84,4.41-3.25,6.27-2.79,8.36-7.2,2.09-4.41-2.09-4.87,6.03-5.8,8.12-.93,8.59,1.62,14.62-5.34s6.73-6.73,9.05-11.61.7-4.18,3.71-5.57c3.02-1.39-2.09.46,3.71-6.96,5.8-7.43,4.41-3.48,6.73-8.82,2.32-5.34.93-6.03,3.02-13.23s5.57-14.62,10.44-14.16,10.91.7,14.62-3.95,6.03-.93,7.2-4.64c1.16-3.71-1.62-7.43-.93-12.53s6.73-6.27,9.28-10.68,0-1.62,5.11-6.27c5.11-4.64,6.73-6.5,6.73-7.43s-1.62,3.02,0-2.32c1.62-5.34,2.55-7.66,6.73-9.75,4.18-2.09,7.2,1.86,5.57-2.55-1.62-4.41-6.03-4.64-1.39-11.61,4.64-6.96,6.03,1.16,3.25-10.44s.23-2.79-2.32-7.66-5.34-6.03-1.62-9.05,2.32-3.71,3.95-5.57c1.62-1.86,1.39-4.87,5.57-4.87s3.48,1.16,8.12-3.48c4.64-4.64,8.12-7.2,11.37-5.34s16.34-1.13,12.85-10.18-8.91-1.89-11.23-6.3c-2.32-4.41-4.18,0-8.12-2.55s-3.95,2.09-8.82-2.32c-4.87-4.41-7.2-5.11-5.11-9.98s-.93-4.87-4.41-5.34-10.68.23-11.84-3.02c-1.16-3.25.93.46-4.18-3.95-5.11-4.41-7.89-6.96-12.3-6.96s-10.44-2.55-11.61-3.48c-1.16-.93-10.91-5.11-9.28-10.68s3.48-6.03,2.09-10.44c-1.39-4.41-1.62-6.96.46-10.91s3.48-2.79,1.62-6.96c-1.86-4.18-1.39-12.07-2.55-15.55-1.16-3.48-3.25.23-3.25-5.57s3.48-5.34,2.55-10.91-3.02-4.41-3.02-9.52,3.48-2.79,1.39-6.73c-2.09-3.95-7.43-5.57-1.62-6.96s4.41.46,8.59-4.18c4.18-4.64,3.71-2.79,4.87-6.27,1.16-3.48,2.55-1.39,7.2-3.02,4.64-1.62,4.18.23,8.59-5.34s8.82-9.05,4.18-11.84c-4.64-2.79-5.34,2.09-10.68-3.48-5.34-5.57-4.18-4.87-6.03-6.96-1.86-2.09-2.55-2.09-1.62-7.43s-1.16-7.66-3.25-5.11c-2.09,2.55-4.87,5.8-8.12,1.62s-.23-3.71-3.95-6.03c-3.71-2.32-6.73-6.27-10.91-10.68s-2.32-2.09-10.44-2.55c-8.12-.46-9.75,3.95-13.46-.46-3.71-4.41-2.79-3.25-2.32-7.89.46-4.64.93,2.55-2.09-6.96-3.02-9.52-1.39-10.21,2.09-11.84,3.48-1.62,4.64.23,6.03-3.25,1.39-3.48.7-.46,4.64-3.71,3.95-3.25,3.95-.7,4.41-4.41.46-3.71.46-6.27,3.48-7.66,3.02-1.39,3.25,4.41,6.27-2.32,3.02-6.73,4.64-9.28,7.2-8.59s3.71,1.86,7.89.23,6.27-3.71,9.75-1.16,12.3,4.87,11.84,3.71h0Z"/>
  </g>
</svg>